<?xml version="1.0" standalone="no"?>
<!DOCTYPE svg PUBLIC "-//W3C//DTD SVG 20010904//EN"
 "http://www.w3.org/TR/2001/REC-SVG-20010904/DTD/svg10.dtd">
<svg version="1.0" xmlns="http://www.w3.org/2000/svg"
 width="78.000000pt" height="73.000000pt" viewBox="0 0 78.000000 73.000000"
 preserveAspectRatio="xMidYMid meet">

<g transform="translate(0.000000,73.000000) scale(0.100000,-0.100000)"
fill="#000000" stroke="none">
<path d="M289 717 c-89 -33 -165 -103 -201 -185 -32 -72 -36 -210 -9 -283 29
-75 90 -143 165 -182 57 -30 68 -32 161 -32 91 0 105 3 151 28 74 41 123 93
158 167 27 57 31 76 31 150 0 74 -4 93 -31 150 -35 74 -84 126 -158 166 -43
24 -65 29 -141 31 -58 2 -103 -2 -126 -10z m247 -42 c68 -33 121 -87 153 -154
22 -48 26 -70 26 -146 0 -78 -4 -97 -28 -142 -103 -198 -351 -238 -507 -83
-86 86 -119 203 -86 311 31 100 87 173 166 214 78 41 192 40 276 0z"/>
<path d="M315 611 c-3 -11 -14 -22 -23 -24 -9 -3 37 -4 103 -4 79 1 94 2 44 4
-66 3 -78 6 -82 23 -7 26 -34 26 -42 1z"/>
<path d="M595 580 c3 -5 8 -10 11 -10 2 0 4 5 4 10 0 6 -5 10 -11 10 -5 0 -7
-4 -4 -10z"/>
<path d="M252 558 c-14 -14 -16 -28 -3 -28 5 0 11 9 14 20 6 23 5 24 -11 8z"/>
<path d="M484 530 c117 -4 130 -7 137 -25 4 -11 8 -15 8 -8 3 40 -7 43 -143
41 l-131 -2 129 -6z"/>
<path d="M238 508 c-17 -15 -33 -53 -18 -43 16 10 12 -4 -9 -33 l-19 -27 25
-2 c24 -1 25 1 21 41 -6 50 8 66 56 66 32 0 35 -3 39 -32 4 -32 4 -32 5 5 l2
37 -43 0 c-24 0 -50 -6 -59 -12z"/>
<path d="M352 468 l2 -53 3 48 4 47 39 0 39 0 4 -47 3 -48 2 53 2 52 -50 0
-50 0 2 -52z"/>
<path d="M520 495 c0 -8 -7 -15 -15 -15 -8 0 -15 -7 -15 -15 0 -8 6 -15 14
-15 7 0 16 -9 19 -20 3 -11 10 -20 17 -20 7 0 14 9 17 20 3 11 12 20 19 20 8
0 14 7 14 15 0 8 -9 15 -20 15 -11 0 -20 7 -20 15 0 8 -7 15 -15 15 -8 0 -15
-7 -15 -15z"/>
<path d="M629 425 l-4 -30 -229 -1 c-225 -1 -230 -2 -248 -24 -12 -15 -18 -39
-18 -76 0 -50 2 -54 24 -54 14 0 30 -10 40 -25 23 -35 77 -35 104 0 18 23 27
25 94 25 67 0 77 -3 98 -25 30 -32 70 -32 99 -1 13 14 35 26 50 28 20 2 27 9
29 32 2 16 -1 33 -7 39 -6 6 -11 29 -12 51 -1 23 -4 52 -9 66 -7 25 -7 25 -11
-5z m-6 -77 c9 -33 -3 -42 -27 -19 -11 11 -33 22 -47 26 -36 9 -89 -36 -89
-76 0 -29 0 -29 -64 -29 l-64 0 -6 35 c-11 57 -76 85 -122 50 -27 -20 -44 -18
-44 5 0 18 8 20 128 23 354 8 329 9 335 -15z m-376 -70 c-3 -8 -6 -5 -6 6 -1
11 2 17 5 13 3 -3 4 -12 1 -19z m0 -50 c-3 -8 -6 -5 -6 6 -1 11 2 17 5 13 3
-3 4 -12 1 -19z"/>
</g>
</svg>
