<?xml version="1.0" standalone="no"?>
<!DOCTYPE svg PUBLIC "-//W3C//DTD SVG 20010904//EN"
 "http://www.w3.org/TR/2001/REC-SVG-20010904/DTD/svg10.dtd">
<svg version="1.0" xmlns="http://www.w3.org/2000/svg"
 width="78.000000pt" height="65.000000pt" viewBox="0 0 78.000000 65.000000"
 preserveAspectRatio="xMidYMid meet">

<g transform="translate(0.000000,65.000000) scale(0.100000,-0.100000)"
fill="#000000" stroke="none">
<path d="M259 625 c-72 -23 -140 -74 -184 -138 -40 -58 -40 -60 -40 -152 0
-92 0 -94 40 -151 63 -90 133 -132 263 -154 104 -18 244 24 317 96 68 66 98
138 93 222 -5 82 -28 133 -88 191 -71 70 -136 95 -255 98 -68 2 -115 -2 -146
-12z m242 -11 c206 -61 296 -265 188 -427 -56 -85 -182 -147 -299 -147 -199 0
-368 157 -346 320 17 124 118 229 250 261 55 13 151 10 207 -7z"/>
<path d="M293 573 c-4 -10 -11 -21 -16 -25 -17 -11 -13 -52 5 -70 10 -10 20
-18 23 -18 3 0 4 -3 3 -7 -2 -5 -10 -8 -18 -8 -11 0 -15 -12 -16 -45 -2 -54
10 -80 37 -80 30 0 46 -43 31 -84 -17 -46 -15 -64 8 -71 13 -4 20 -15 20 -31
0 -27 21 -32 40 -9 20 24 66 19 88 -10 22 -27 48 -34 38 -10 -3 8 -1 15 4 15
14 0 12 17 -4 32 -11 11 -11 17 3 37 12 18 12 26 3 29 -19 6 -14 22 8 22 11 0
20 5 20 11 0 6 -9 13 -20 16 -15 4 -20 14 -20 42 0 59 -10 78 -51 105 -21 15
-39 33 -39 42 0 11 -6 13 -20 9 -24 -8 -24 -7 -4 34 16 33 11 58 -7 31 -8 -13
-12 -12 -27 6 -9 12 -26 27 -37 33 -18 11 -17 12 10 7 17 -2 39 -7 50 -11 14
-4 13 -2 -5 9 -35 22 -99 21 -107 -1z m35 -12 c10 -6 9 -10 -7 -14 -14 -3 -21
0 -21 9 0 16 9 18 28 5z m42 -32 c0 -5 -4 -9 -10 -9 -5 0 -10 7 -10 16 0 8 5
12 10 9 6 -3 10 -10 10 -16z m-40 -5 c0 -8 -5 -12 -10 -9 -6 4 -8 11 -5 16 9
14 15 11 15 -7z m56 -56 c19 -30 21 -38 10 -47 -7 -6 -24 -10 -36 -9 -18 2
-25 -3 -31 -22 -6 -23 -7 -22 -8 8 -1 20 3 31 9 27 6 -4 10 5 10 20 0 18 -7
28 -25 35 -37 14 -31 27 12 26 30 -2 40 -8 59 -38z m124 -208 c0 -5 -2 -10 -4
-10 -3 0 -8 5 -11 10 -3 6 -1 10 4 10 6 0 11 -4 11 -10z"/>
<path d="M430 572 c0 -6 5 -14 11 -17 6 -4 8 -14 5 -22 -3 -8 -1 -11 4 -8 15
9 12 31 -5 45 -9 8 -15 9 -15 2z"/>
<path d="M147 358 c-7 -4 16 -8 51 -8 34 0 62 4 62 8 0 10 -98 10 -113 0z"/>
</g>
</svg>
