<?xml version="1.0" standalone="no"?>
<!DOCTYPE svg PUBLIC "-//W3C//DTD SVG 20010904//EN"
 "http://www.w3.org/TR/2001/REC-SVG-20010904/DTD/svg10.dtd">
<svg version="1.0" xmlns="http://www.w3.org/2000/svg"
 width="75.000000pt" height="63.000000pt" viewBox="0 0 75.000000 63.000000"
 preserveAspectRatio="xMidYMid meet">

<g transform="translate(0.000000,63.000000) scale(0.100000,-0.100000)"
fill="#000000" stroke="none">
<path d="M273 623 c-7 -3 -13 -18 -13 -34 0 -34 -17 -39 -22 -6 -4 31 -33 29
-33 -3 0 -19 -7 -25 -30 -30 -88 -19 -155 -88 -155 -159 0 -54 46 -131 112
-190 l37 -32 30 22 c25 18 38 21 79 16 47 -5 50 -4 54 18 6 27 -45 115 -66
115 -7 0 -16 -13 -19 -30 -8 -36 -48 -64 -81 -56 -40 10 -59 35 -52 70 4 17 6
54 6 82 -1 45 3 55 26 73 30 24 51 26 104 10 35 -11 41 -9 79 17 45 32 51 44
21 44 -11 0 -20 4 -20 8 0 5 9 17 20 27 26 23 25 35 -1 35 -13 0 -23 -10 -30
-30 -6 -16 -17 -30 -25 -30 -11 0 -11 6 -3 27 10 28 2 44 -18 36z"/>
<path d="M353 510 c-69 -48 -72 -49 -99 -35 -65 34 -124 5 -124 -59 0 -19 4
-38 10 -41 6 -4 4 -15 -6 -30 -20 -31 -10 -63 23 -76 34 -13 73 12 73 46 0 30
26 46 54 33 31 -14 65 -95 59 -139 -5 -36 -5 -37 -31 -23 -57 30 -116 6 -142
-56 -11 -25 -10 -34 5 -56 33 -51 132 -68 165 -29 7 8 15 35 17 60 5 40 8 43
24 34 18 -9 18 -11 3 -34 -15 -23 -15 -27 0 -50 29 -44 96 -29 96 22 l0 23 51
-20 c48 -19 53 -20 76 -4 14 9 28 25 30 35 3 10 12 19 19 19 22 0 54 61 54
103 0 21 -7 54 -16 75 -15 35 -16 36 -25 14 -19 -50 -110 -58 -142 -12 -12 17
-14 15 -24 -17 -11 -35 -10 -35 31 -54 22 -10 46 -19 52 -19 20 0 64 -41 64
-58 0 -12 -4 -11 -13 6 -8 16 -38 34 -87 54 -41 16 -77 31 -79 34 -2 2 3 12
12 22 32 35 11 122 -29 122 -23 0 -16 16 21 44 19 15 35 35 35 45 0 28 -39 71
-64 71 -12 0 -54 -22 -93 -50z m117 11 c18 -34 11 -55 -29 -83 -22 -16 -44
-28 -49 -28 -12 0 -52 48 -52 61 0 14 81 69 101 69 10 0 23 -9 29 -19z m-207
-68 c21 -19 22 -39 3 -46 -13 -5 -76 50 -76 67 0 12 52 -3 73 -21z m-65 -16
l33 -34 -30 5 c-35 5 -56 25 -47 47 7 20 7 20 44 -18z m143 -2 c16 -33 15 -35
-8 -55 -35 -31 -53 -20 -46 27 6 37 19 63 32 63 3 -1 13 -16 22 -35z m49 -90
c-24 -25 -45 -45 -47 -45 -1 0 -7 9 -13 20 -15 29 27 70 72 70 l32 0 -44 -45z
m84 19 c3 -9 6 -19 6 -24 0 -12 -64 -40 -91 -40 -21 0 -20 3 16 40 42 43 59
49 69 24z m-276 -31 c2 -14 -4 -26 -18 -33 -24 -13 -40 -6 -40 19 0 41 52 54
58 14z m268 -49 c-11 -8 -27 -14 -35 -14 -10 0 -4 8 14 20 33 21 51 17 21 -6z
m2 -45 c56 -23 70 -50 46 -86 -16 -26 -48 -29 -91 -11 -63 27 -80 63 -46 100
21 23 29 23 91 -3z m158 -86 c4 -16 0 -31 -11 -43 -20 -22 -41 -25 -80 -10
-25 9 -25 11 -11 32 9 12 16 35 16 49 l0 27 40 -15 c27 -11 42 -24 46 -40z
m-381 17 c-3 -5 -12 -10 -18 -10 -7 0 -6 4 3 10 19 12 23 12 15 0z m44 -44
c43 -23 53 -39 37 -62 -8 -10 -16 -17 -18 -14 -2 3 -21 24 -43 48 -42 45 -32
57 24 28z m-9 -78 c0 -15 -55 4 -79 28 -21 19 -22 25 -11 39 12 14 17 12 52
-22 21 -20 38 -41 38 -45z m170 53 c0 -24 -25 -45 -45 -37 -15 5 -21 37 -8 49
3 4 17 7 30 7 16 0 23 -6 23 -19z"/>
<path d="M494 446 l-31 -32 24 -28 23 -27 9 24 c5 13 24 30 41 37 l32 13 -29
23 c-15 13 -30 23 -33 23 -3 0 -19 -15 -36 -33z"/>
<path d="M551 403 c-47 -38 -16 -113 45 -113 50 0 81 63 52 103 -21 27 -70 32
-97 10z m36 -14 c-10 -6 -22 -20 -27 -32 -8 -21 -9 -21 -9 -1 -1 24 17 44 39
44 12 -1 11 -3 -3 -11z"/>
</g>
</svg>
