<?xml version="1.0" standalone="no"?>
<!DOCTYPE svg PUBLIC "-//W3C//DTD SVG 20010904//EN"
 "http://www.w3.org/TR/2001/REC-SVG-20010904/DTD/svg10.dtd">
<svg version="1.0" xmlns="http://www.w3.org/2000/svg"
 width="71.000000pt" height="67.000000pt" viewBox="0 0 71.000000 67.000000"
 preserveAspectRatio="xMidYMid meet">

<g transform="translate(0.000000,67.000000) scale(0.100000,-0.100000)"
fill="#000000" stroke="none">
<path d="M280 648 c-51 -14 -134 -73 -163 -116 -43 -62 -57 -107 -57 -184 0
-124 60 -220 173 -280 61 -33 202 -33 267 -1 59 29 120 90 150 150 37 72 35
187 -3 265 -66 135 -225 207 -367 166z m215 -32 c132 -60 203 -213 161 -347
-19 -59 -79 -149 -99 -149 -6 0 -22 15 -34 33 -13 17 -30 42 -39 54 -16 23
-16 23 20 23 29 0 36 -4 36 -20 0 -11 5 -20 10 -20 6 0 10 9 10 19 0 11 9 23
21 26 11 4 18 12 15 18 -3 7 -9 20 -12 30 -9 23 -114 26 -114 2 0 -8 -5 -15
-12 -15 -18 0 -48 31 -48 51 0 13 -8 17 -30 17 -20 -1 -30 -6 -30 -17 0 -12
-3 -12 -12 -3 -17 17 -41 15 -35 -2 11 -27 -37 -46 -118 -46 -61 0 -75 -3 -75
-15 0 -9 7 -18 15 -21 8 -4 15 -14 15 -24 0 -11 5 -22 10 -25 6 -4 10 5 10 19
0 25 2 26 64 26 49 0 65 -4 70 -16 3 -9 4 -20 0 -25 -3 -5 2 -9 10 -9 19 0 22
36 4 43 -7 3 14 6 47 6 46 1 56 -2 47 -11 -17 -17 -15 -38 4 -38 8 0 13 4 10
9 -10 15 5 41 23 40 19 0 105 -114 96 -128 -3 -5 -31 -19 -63 -31 -115 -44
-243 -12 -327 82 -100 112 -101 277 -1 396 15 17 33 32 40 32 6 0 37 -36 69
-80 57 -78 57 -80 41 -105 -13 -19 -14 -28 -5 -39 18 -21 51 -27 58 -10 4 12
8 12 21 2 13 -11 15 -10 9 4 -5 15 -3 16 19 6 31 -14 40 -5 26 27 -13 29 -24
31 -46 10 -9 -9 -17 -11 -21 -5 -3 5 -1 10 4 10 6 0 11 5 11 11 0 6 -8 8 -17
5 -12 -3 -24 4 -35 18 -17 23 -17 24 1 19 10 -3 22 0 26 7 5 8 10 8 21 -1 17
-14 44 -5 44 15 0 11 -13 15 -52 14 -29 0 -56 -4 -59 -9 -3 -6 -24 14 -46 43
-58 76 -57 75 -23 93 77 40 180 40 265 1z m-155 -236 c0 -5 -4 -10 -10 -10 -5
0 -10 5 -10 10 0 6 5 10 10 10 6 0 10 -4 10 -10z"/>
</g>
</svg>
