<?xml version="1.0" standalone="no"?>
<!DOCTYPE svg PUBLIC "-//W3C//DTD SVG 20010904//EN"
 "http://www.w3.org/TR/2001/REC-SVG-20010904/DTD/svg10.dtd">
<svg version="1.0" xmlns="http://www.w3.org/2000/svg"
 width="80.000000pt" height="71.000000pt" viewBox="0 0 80.000000 71.000000"
 preserveAspectRatio="xMidYMid meet">

<g transform="translate(0.000000,71.000000) scale(0.100000,-0.100000)"
fill="#000000" stroke="none">
<path d="M360 603 c0 -5 4 -13 8 -19 9 -14 75 2 67 16 -7 12 -75 14 -75 3z"/>
<path d="M355 530 c-3 -5 -1 -10 4 -10 6 0 11 5 11 10 0 6 -2 10 -4 10 -3 0
-8 -4 -11 -10z"/>
<path d="M496 524 c-17 -16 -23 -99 -7 -89 5 3 21 0 35 -6 37 -17 76 10 76 54
0 18 -5 38 -12 45 -17 17 -74 15 -92 -4z"/>
<path d="M350 499 c0 -5 5 -7 10 -4 6 3 10 8 10 11 0 2 -4 4 -10 4 -5 0 -10
-5 -10 -11z"/>
<path d="M335 203 c3 -43 6 -88 6 -100 1 -15 7 -23 20 -23 16 0 17 6 13 48
-11 89 34 140 57 64 8 -27 8 -49 1 -75 -9 -33 -8 -37 8 -37 19 0 28 37 34 142
3 54 -3 58 -92 58 l-52 0 5 -77z"/>
</g>
</svg>
